# xmcd
#
# Track frame offsets: 
#        150
#        17282
#        30760
#        47787
#        65062
#        75692
#        87037
#        103627
#        111875
#
# Disc length: 1782 seconds
#
# Revision: 0
# Processed by: cddbd v1.5.2PL0 Copyright (c) Steve Scherf et al.
# Submitted via: ExactAudioCopyFreeDBPlugin 1.0
#
DISCID=5f06f409
DTITLE=Grey DeLisle - The Small Time
DYEAR=2000
DGENRE=Blues
TTITLE0=The Brick
TTITLE1=Sabor a mi
TTITLE2=Sing to me
TTITLE3=Free
TTITLE4=Blue state of mind
TTITLE5=Calvary
TTITLE6=Loving in the past
TTITLE7=You aint never
TTITLE8=Lullabye
EXTD=
EXTT0=
EXTT1=
EXTT2=
EXTT3=
EXTT4=
EXTT5=
EXTT6=
EXTT7=
EXTT8=
PLAYORDER=
